<svg xmlns="http://www.w3.org/2000/svg" xml:space="preserve" id="Lager_1" x="0" y="0" version="1.1" viewBox="0 0 607.8 182"><style>.st2{fill:#1a171b}</style><path d="M153.6 143H24.8c-4.3 0-7.7-3.5-7.7-7.7V48.8c-.1-4.3 3.4-7.8 7.7-7.8h128.8c4.3 0 7.7 3.5 7.7 7.7v86.5c.1 4.4-3.4 7.8-7.7 7.8" style="fill:#3faf2a"/><path d="M128.2 90.8c2.8 0 5.3.5 7.6 2 3.2 2 5.1 5.4 6.3 8.7 1.8 4.9.5 10.9-2.4 15.2-3 4.2-7.3 6.6-12.7 6.7-4.5 0-9.1 0-13.4.1-7.9.1-15.8.2-23.6.2-8.4 0-16.5 0-24.7-.1q-4.35 0-8.7-.3c-.9 0-1.9-.1-3-.2-.5 0-1.2-.1-1.6-.2-7.1-2.2-12.2-7.5-14.5-14.5-1-3.2-1.2-6.5-.9-9.8s1.4-6.4 3.2-9.3c3.6-5.8 9.6-9 16.4-9.5.2-5 2.1-9.7 5.6-13.3 3.7-4.1 8.9-6.9 14.3-8.3 8.4-2.2 18.3-1.2 25.2 4.6 2 1.8 3.9 3.7 5.5 5.9 1.5 2.1 2.8 4.7 3.9 7l.2.6-1.1.5-.4-.5c-3.5-5.4-9.1-9.3-15.4-10.9-5.9-1.5-12.4-1.2-17.8 1.6-3.2 1.7-5.7 4.1-7.4 7.1-2.1 3.7-2.9 7.9-3 12v.8l-.8.1c-4.5-.9-8.8 0-12.1 3.1-2.2 2-3.7 5-4.2 7.9-.6 3.3-.1 6.6 1.5 9.5 2.3 4.5 7.8 7.1 12.9 7.2l62.3-.4c2.4-.4 4.5-1.9 5.7-4 1.1-2.4 1.2-5.2.1-7.7-.9-2.1-2.8-4.2-5.1-4.9-2-.6-4.2-.3-6 .7l-.8 1.1-1-.6.2-.5c2.4-5.3 1.6-8.5-3.1-12.1-2.6-2-5.7-3.2-9.1-3-6.2.5-11.7 5.6-15 10.5-.3.4-.5.9-.8 1.3L89 98l-1.2-.5.2-.6c1.2-3.5 2.5-7 4.7-10.1 2.4-3.6 5.6-6.1 9.7-7.9 3.9-1.6 8.3-2.1 12.4-1.1 6.7 1.7 11.3 6.7 13.4 13" style="fill:#fff"/><path d="M515.5 77.2c0 2.1-.9 3.1-2.6 3.1h-17.7c-1.9 0-2.9-1.1-2.9-3.5v-9.5c0-2.4 1.2-3.7 3.7-3.7h16.2c2.3 0 3.5 1.2 3.5 3.5v10.1zm6.9-22.7h-37.1c-5 0-8.5 2.8-8.5 6.7v21.5c0 4.2 3.2 6.9 7.6 6.9h38.4c4.4 0 7.6-2.3 7.6-6.3V61.2c.2-4.1-3.2-6.7-8-6.7M277.8 77.2c0 2.1-.8 3.1-2.6 3.1h-17.8c-1.9 0-2.9-1.1-2.9-3.5v-9.5c0-2.4 1.2-3.7 3.7-3.7h16.2c2.3 0 3.5 1.2 3.5 3.5v10.1zm6.9-22.7h-37.1c-5 0-8.5 2.8-8.5 6.7v21.5c0 4.2 3.2 6.9 7.6 6.9h38.4c4.4 0 7.6-2.3 7.6-6.3V61.2c.3-4.1-3.2-6.7-8-6.7M231.9 54.5h-42.7c-5.1 0-8.9 2.8-8.9 7.6v24.4c0 2 1.1 3.1 2.9 3.1h8.9c1.8 0 2.6-.9 2.6-2.9v-8.3c0-1.6.8-2.5 2.3-2.5h34.6c1.6 0 2.5-.7 2.5-2v-3.8c0-1.5-.8-2.3-2.5-2.3h-34.4c-1.6 0-2.5-.7-2.5-2.1 0-1.6.8-2.4 2.5-2.4h34.6c1.5 0 2.3-.7 2.3-2.2v-4.6c.1-1.3-.7-2-2.2-2M407.6 54.5h-46.8c-1.5 0-2.3.8-2.3 2.1v5.1c0 1.4.8 2.2 2.3 2.2H377v22.6c0 2 1.1 3.1 2.9 3.1h8.9c1.8 0 2.6-.9 2.6-2.9V64h16.2c1.5 0 2.3-.7 2.3-2.2v-5.2c0-1.3-.8-2.1-2.3-2.1M336.5 67.9h-20c-1.3 0-1.9-.7-1.9-2.1 0-1.6.6-2.4 1.9-2.4h20c1.7 0 2.9.8 2.9 2.4-.1 1.6-1.1 2.1-2.9 2.1m18.8 19.3-13-11.1h2.9c5.9 0 8.9-1.9 8.9-5.8v-9.6c0-4.1-2.9-6.1-8.7-6.1H309c-5.1 0-8.9 2.9-8.9 7.6v24.7c0 1.9.9 2.9 2.3 2.9h10c1.4 0 2.1-.8 2.1-2.5v-8.7c0-1.6.7-2.5 2.3-2.5h8.3l8.5 7.8 6.2 5.8h15c1.7 0 2-1.3.5-2.5M467.4 54.5h-8.7c-2.2 0-3.3 1.7-3.3 3.7v16.5l-.8-.7-14.2-13.2c-4.5-4.2-8.9-6.3-13.1-6.3h-5.5c-5.3 0-7.8 2.1-7.8 6.4v22.6c0 4.1 1.9 6.2 6.3 6.2h20.5c1.4 0 1.8-.7.6-1.9l-5.8-5.4c-1.1-1.1-2.3-1.6-3.5-1.7h-3.4c-1.8 0-2.3-.8-2.3-2.5V67.5c0-1.6.8-2.3 2.1-1.1l24.9 23.3h14.4c1.9 0 3.1-.7 3.1-3.2V57.8c-.1-1.9-1.4-3.3-3.5-3.3M580.8 74.2c-1-1.3-1-2.6 0-4.1l9.1-12.3c1.1-1.7.4-3.3-3.1-3.3h-9.4c-1.7 0-3 1.2-3.9 2.3l-8.3 9.8c-.7.8-1.6 1.2-2.6 1.2-.9 0-1.8-.4-2.6-1.2l-8.3-9.8c-.9-1-2.1-2.3-3.9-2.3h-9.4c-3.5 0-4.2 1.5-3.1 3.3l9.1 12.3c1 1.4 1 2.8 0 4.1l-8.7 11.6c-1.7 2.6-.5 4 2.2 4h9.7c2 0 3.4-1.3 4.5-2.9l7.8-9.8c.7-.9 1.7-1.3 2.6-1.3s1.9.4 2.6 1.3l7.8 9.8c1.1 1.5 2.4 2.9 4.5 2.9h9.7c2.8 0 4-1.3 2.2-4z" class="st2"/><path d="M183.1 119.4c.3.6.7 1.2 1.3 1.6s1.2.7 2 .8c.8.2 1.6.2 2.4.2.5 0 1-.1 1.6-.2s1.1-.4 1.6-.7q.75-.45 1.2-1.2c.45-.75.5-1.1.5-1.7 0-.5-.1-1-.4-1.4-.2-.4-.5-.7-.9-1s-.8-.5-1.2-.6c-.5-.2-.9-.3-1.3-.4l-4.3-1c-.5-.1-1.1-.3-1.6-.5s-1-.5-1.4-.8c-.4-.4-.7-.8-.9-1.3s-.4-1.1-.4-1.9c0-.5.1-1 .3-1.6s.5-1.2 1-1.7 1.1-1 2-1.4q1.2-.6 3.3-.6c.9 0 1.8.1 2.8.4.8.2 1.6.6 2.2 1.1s1.1 1.1 1.5 1.8.6 1.6.6 2.5h-1.8c0-.7-.2-1.3-.5-1.9-.3-.5-.7-1-1.1-1.3-.5-.4-1-.6-1.6-.8s-1.2-.3-1.9-.3c-.6 0-1.2.1-1.8.2s-1.1.3-1.5.6-.8.7-1 1.1c-.3.5-.4 1.1-.4 1.8 0 .4.1.8.2 1.1s.4.6.6.8l.9.6c.3.1.7.3 1.1.3l4.7 1.1c.7.2 1.3.4 1.9.6.6.3 1.1.6 1.6.9.4.4.8.8 1.1 1.4.3.5.4 1.2.4 2 0 .2 0 .5-.1.8 0 .4-.1.7-.3 1.1s-.4.8-.7 1.2-.7.8-1.3 1.1c-.5.3-1.2.6-2 .8s-1.7.3-2.9.3-2.1-.1-3.2-.4c-.9-.3-1.8-.6-2.4-1.2-.7-.5-1.2-1.2-1.5-2-.4-.8-.5-1.8-.5-3.1h1.8c-.2 1.4 0 2.2.3 2.8M199.9 109.4v2.3h.1c.4-.8 1-1.5 1.7-2s1.6-.7 2.8-.7c.9 0 1.7.2 2.4.7.7.4 1.2 1.1 1.5 2 .4-.9 1-1.6 1.8-2s1.6-.7 2.5-.7c3.1 0 4.6 1.6 4.6 4.9v9.4h-1.7V114c0-1.1-.2-2-.7-2.6s-1.3-.9-2.5-.9c-.7 0-1.3.1-1.8.4s-.9.6-1.1 1.1c-.3.5-.5 1-.6 1.6s-.2 1.2-.2 1.8v7.8H207v-9.4c0-.5 0-.9-.1-1.3s-.3-.8-.5-1.1-.5-.5-.9-.7-.8-.3-1.3-.3c-.7 0-1.3.1-1.8.4s-.9.6-1.3 1.1c-.3.4-.6 1-.7 1.6-.2.6-.2 1.3-.2 2v7.7h-1.7v-14h1.4zM221 111.5c.3-.6.7-1.1 1.1-1.4.5-.4 1-.6 1.7-.8.6-.2 1.4-.3 2.2-.3.6 0 1.2.1 1.8.2s1.1.3 1.6.6.9.8 1.2 1.3c.3.6.4 1.3.4 2.2v7.3c0 .7.3 1 1 1 .2 0 .4 0 .5-.1v1.5c-.2 0-.4.1-.5.1h-.6c-.4 0-.8-.1-1-.2-.3-.1-.5-.3-.6-.5s-.2-.5-.3-.7c0-.3-.1-.6-.1-1l-.9 1.2c-.3.3-.6.6-1 .9-.4.2-.8.4-1.3.5s-1.1.2-1.7.2-1.2-.1-1.8-.2-1-.4-1.4-.7-.7-.7-1-1.2c-.2-.5-.4-1.1-.4-1.8 0-.9.2-1.7.6-2.2s1-.9 1.7-1.2 1.5-.5 2.3-.6c.9-.1 1.7-.2 2.6-.3.4 0 .7-.1.9-.1.3-.1.5-.1.7-.3.2-.1.3-.3.4-.5s.1-.5.1-.9c0-.6-.1-1-.3-1.4s-.4-.6-.8-.9c-.3-.2-.7-.4-1.1-.4-.4-.1-.9-.1-1.4-.1-1.1 0-1.9.2-2.6.7s-1 1.3-1.1 2.4h-1.7c.4-.9.5-1.7.8-2.3m8.4 4.2c-.1.2-.3.3-.6.4s-.6.1-.8.2c-.7.1-1.4.2-2.2.3-.7.1-1.4.2-2 .4s-1.1.5-1.5.8q-.6.6-.6 1.5c0 .4.1.8.2 1.1.2.3.4.6.7.8s.6.4 1 .5.7.2 1.1.2q.9 0 1.8-.3c.6-.2 1.1-.5 1.5-.8.4-.4.8-.8 1-1.3.3-.5.4-1.1.4-1.8zm-6.1-11.7c.1-.3.4-.6.6-.9q.45-.45.9-.6c.45-.15.7-.2 1.1-.2s.7.1 1.1.2c.3.1.6.4.9.6q.45.45.6.9c.15.45.2.7.2 1.1s-.1.7-.2 1.1c-.1.3-.4.6-.6.9q-.45.45-.9.6c-.3.1-.7.2-1.1.2s-.7-.1-1.1-.2c-.3-.1-.6-.4-.9-.6q-.45-.45-.6-.9c-.15-.45-.2-.7-.2-1.1s.1-.8.2-1.1m1.4 2.3c.3.3.8.5 1.3.5s.9-.2 1.3-.5c.3-.3.5-.8.5-1.3s-.2-.9-.5-1.3c-.3-.3-.8-.5-1.3-.5s-.9.2-1.3.5c-.3.3-.5.8-.5 1.3-.1.6.1 1 .5 1.3M237.2 110.8v12.4h-1.8v-12.4h-2.3v-1.4h2.3v-1.2c0-.6 0-1.1.1-1.6s.3-.9.5-1.3.6-.6 1-.8 1-.3 1.6-.3h.7c.2 0 .4 0 .7.1v1.4c-.2 0-.4-.1-.6-.1h-.6c-.5 0-.8.1-1.1.2-.2.1-.4.3-.5.6-.1.2-.2.5-.2.8v2.2h2.8v1.4zM250.1 109.6c.8.4 1.5.9 2 1.6.5.6 1 1.4 1.2 2.3.3.9.4 1.8.4 2.9 0 1-.1 1.9-.4 2.9-.3.9-.7 1.6-1.2 2.3-.5.6-1.2 1.2-2 1.5-.8.4-1.7.6-2.8.6-1 0-2-.2-2.8-.6s-1.5-.9-2-1.5-1-1.4-1.2-2.3c-.3-.9-.4-1.8-.4-2.9 0-1 .1-1.9.4-2.9.3-.9.7-1.6 1.2-2.3.5-.6 1.2-1.2 2-1.6s1.7-.6 2.8-.6 2 .2 2.8.6m-4.9 1.3c-.6.3-1.1.8-1.5 1.3s-.7 1.2-.9 1.9q-.3 1.05-.3 2.1c0 1.05.1 1.4.3 2.1s.5 1.3.9 1.9c.4.5.9 1 1.5 1.3s1.3.5 2.1.5 1.5-.2 2.1-.5 1.1-.8 1.5-1.3.7-1.2.9-1.9q.3-1.05.3-2.1c0-1.05-.1-1.4-.3-2.1s-.5-1.3-.9-1.9c-.4-.5-.9-1-1.5-1.3s-1.3-.5-2.1-.5-1.5.2-2.1.5m-1.1-6.6h1.8v2.8h-1.8zm4.7 0h1.8v2.8h-1.8zM257.9 109.4v3.3h.1c.4-1.1 1.1-2 2-2.6s1.9-.9 3.3-.8v1.7c-.8 0-1.4.1-2.1.3-.6.2-1.1.6-1.6 1-.4.4-.8 1-1 1.6s-.4 1.3-.4 2v7.3h-1.8v-13.8zM265.6 118.7c.2.6.4 1.2.8 1.7s.8.9 1.4 1.3c.6.3 1.2.5 2 .5 1.2 0 2.2-.3 2.9-.9s1.2-1.5 1.4-2.5h1.7c-.4 1.5-1 2.8-1.9 3.7-.9.8-2.3 1.3-4.1 1.3-1.1 0-2-.2-2.9-.6-.8-.4-1.4-.9-1.9-1.6s-.9-1.4-1.1-2.3-.4-1.8-.4-2.8c0-.9.1-1.8.4-2.6.2-.9.6-1.6 1.1-2.3s1.1-1.2 1.9-1.6 1.7-.6 2.9-.6c1.1 0 2 .2 2.9.7.8.4 1.4 1 1.9 1.7s.8 1.5 1 2.4.3 1.9.3 2.9h-10.5c-.1.2 0 .9.2 1.6m8.3-5.2q-.3-.9-.9-1.5c-.6-.6-.8-.8-1.3-1.1s-1.1-.4-1.8-.4-1.3.1-1.8.4-1 .6-1.3 1.1c-.4.4-.7 1-.9 1.6s-.4 1.2-.4 1.8h9c-.3-.7-.4-1.3-.6-1.9M283.7 109.4v1.4h-2.9v9.4c0 .5.1 1 .2 1.3s.5.5 1.1.5c.5 0 .9 0 1.4-.1v1.4h-1.4c-1.1 0-1.9-.2-2.3-.6s-.6-1.2-.6-2.4v-9.5h-2.4v-1.4h2.4v-4.2h1.7v4.2zM286.6 111.5c.3-.6.7-1.1 1.1-1.4.5-.4 1-.6 1.7-.8.6-.2 1.4-.3 2.2-.3.6 0 1.2.1 1.8.2s1.1.3 1.6.6.9.8 1.2 1.3c.3.6.4 1.3.4 2.2v7.3c0 .7.3 1 1 1 .2 0 .4 0 .5-.1v1.5c-.2 0-.4.1-.5.1h-.6c-.4 0-.8-.1-1-.2-.3-.1-.5-.3-.6-.5s-.2-.5-.3-.7c0-.3-.1-.6-.1-1h-.1l-.9 1.2c-.3.3-.6.6-1 .9-.4.2-.8.4-1.3.5s-1.1.2-1.7.2-1.2-.1-1.8-.2-1-.4-1.4-.7-.7-.7-1-1.2c-.2-.5-.4-1.1-.4-1.8 0-.9.2-1.7.6-2.2s1-.9 1.7-1.2 1.5-.5 2.3-.6c.9-.1 1.7-.2 2.6-.3.4 0 .7-.1.9-.1.3-.1.5-.1.7-.3.2-.1.3-.3.4-.5s.1-.5.1-.9c0-.6-.1-1-.3-1.4s-.4-.6-.8-.9c-.3-.2-.7-.4-1.1-.4-.2-.2-.7-.2-1.2-.2-1.1 0-1.9.2-2.6.7s-1 1.3-1.1 2.4h-1.7c.2-.8.4-1.6.7-2.2m8.3 4.2c-.1.2-.3.3-.6.4s-.6.1-.8.2c-.7.1-1.4.2-2.2.3-.7.1-1.4.2-2 .4s-1.1.5-1.5.8q-.6.6-.6 1.5c0 .4.1.8.2 1.1.2.3.4.6.7.8s.6.4 1 .5.7.2 1.1.2q.9 0 1.8-.3c.6-.2 1.1-.5 1.5-.8.4-.4.8-.8 1-1.3.3-.5.4-1.1.4-1.8zM311.4 124.9c-.2.8-.6 1.5-1 2.1-.5.6-1.1 1-1.9 1.3s-1.7.4-2.9.4c-.7 0-1.4-.1-2-.2-.6-.2-1.2-.4-1.7-.7s-.9-.8-1.3-1.3c-.3-.5-.5-1.1-.6-1.9h1.7c.1.5.3.9.5 1.3.3.3.6.6.9.8.4.2.8.4 1.2.5s.9.1 1.3.1c1.5 0 2.8-.4 3.4-1.3.7-.9 1-2.1 1-3.9v-1.8h-.1c-.4.8-1 1.5-1.7 2s-1.6.8-2.6.8c-1.1 0-2-.2-2.9-.5-.8-.4-1.4-.9-1.9-1.5s-.9-1.4-1.1-2.2c-.2-.9-.3-1.8-.3-2.8 0-.9.1-1.8.4-2.6s.7-1.6 1.2-2.2 1.2-1.1 1.9-1.5c.8-.4 1.6-.5 2.6-.5.5 0 1 .1 1.4.2s.9.3 1.2.6c.4.3.7.5 1 .9.3.3.5.7.7 1.1h.1v-2.6h1.7v12.7c.1 1 0 1.9-.2 2.7m-3.8-3.7c.5-.3 1-.7 1.4-1.2s.6-1.1.8-1.7.3-1.3.3-2-.1-1.3-.2-2c-.2-.7-.4-1.3-.8-1.8s-.8-1-1.4-1.3-1.2-.5-2-.5-1.5.2-2 .5c-.6.3-1 .7-1.4 1.3-.4.5-.6 1.1-.8 1.8s-.2 1.4-.2 2.1.1 1.4.3 2 .4 1.2.8 1.7.8.9 1.4 1.2 1.2.5 2 .5c.5-.2 1.2-.3 1.8-.6M316.2 118.7c.2.6.4 1.2.8 1.7s.8.9 1.4 1.3c.6.3 1.2.5 2 .5 1.2 0 2.2-.3 2.9-.9.6-.6 1.2-1.5 1.4-2.5h1.7c-.4 1.5-1 2.8-1.9 3.7-.9.8-2.3 1.3-4.1 1.3-1.1 0-2-.2-2.9-.6-.8-.4-1.4-.9-1.9-1.6s-.9-1.4-1.1-2.3-.4-1.8-.4-2.8c0-.9.1-1.8.4-2.6.2-.9.6-1.6 1.1-2.3s1.1-1.2 1.9-1.6 1.7-.6 2.9-.6c1.1 0 2 .2 2.9.7.8.4 1.4 1 1.9 1.7s.8 1.5 1 2.4.3 1.9.3 2.9h-10.6c.1.2.1.9.3 1.6m8.4-5.2q-.3-.9-.9-1.5c-.6-.6-.8-.8-1.3-1.1s-1.1-.4-1.8-.4-1.3.1-1.8.4-1 .6-1.3 1.1c-.4.4-.7 1-.9 1.6s-.4 1.2-.4 1.8h9c-.3-.7-.4-1.3-.6-1.9M330.6 109.4v2.3h.1c.3-.8.9-1.5 1.7-2s1.7-.7 2.8-.7c.9 0 1.7.1 2.4.4.6.2 1.2.6 1.5 1 .4.4.7 1 .8 1.6.2.6.2 1.4.2 2.2v8.9h-1.7v-8.7c0-.6-.1-1.1-.2-1.6s-.3-.9-.6-1.3-.6-.7-1.1-.9c-.4-.2-1-.3-1.7-.3s-1.3.1-1.8.4c-.5.2-1 .6-1.3 1-.4.4-.6.9-.8 1.5s-.3 1.2-.3 1.9v8h-1.7v-13.7zM351.3 112c-.2-.4-.5-.7-.8-.9s-.7-.4-1.1-.5-.9-.2-1.3-.2-.7 0-1.1.1-.7.2-1 .4-.6.4-.8.7-.3.7-.3 1.1.1.7.3.9c.2.3.4.5.7.6.3.2.6.3.9.4l.9.3 2.2.5c.5.1.9.2 1.4.4s.9.4 1.2.7c.4.3.7.7.9 1.1s.3 1 .3 1.6c0 .7-.2 1.4-.5 1.9s-.8.9-1.3 1.3c-.5.3-1.1.6-1.7.7s-1.3.2-1.9.2c-1.6 0-3-.4-4-1.1-1-.8-1.6-2-1.7-3.7h1.7c.1 1.1.5 2 1.2 2.5.7.6 1.7.9 2.9.9.4 0 .8 0 1.2-.1s.8-.2 1.2-.4.7-.5.9-.8.4-.7.4-1.2c0-.4-.1-.7-.2-1-.2-.3-.4-.5-.7-.7s-.6-.3-1-.5c-.4-.1-.7-.2-1.1-.3l-2.1-.5c-.5-.1-1-.3-1.5-.5s-.9-.4-1.2-.7-.6-.6-.8-1q-.3-.6-.3-1.5c0-.7.2-1.3.5-1.8s.7-.9 1.2-1.2 1-.5 1.6-.7c.6-.1 1.2-.2 1.8-.2.7 0 1.3.1 1.9.3s1.1.4 1.6.8c.4.4.8.8 1.1 1.4.3.5.4 1.2.4 1.9h-1.7c0-.2-.1-.7-.3-1.2M365.3 104.1v7.9h.1c.2-.5.4-.9.7-1.3s.7-.7 1.1-.9c.4-.3.9-.4 1.4-.6.5-.1 1-.2 1.5-.2 1 0 1.9.2 2.8.6.8.4 1.4.9 1.9 1.6s.9 1.4 1.1 2.3.4 1.8.4 2.8-.1 1.9-.4 2.8c-.2.9-.6 1.6-1.1 2.3s-1.1 1.2-1.9 1.6-1.7.6-2.8.6-2.1-.3-3.1-.8c-.9-.5-1.5-1.2-1.9-2.2h-.1v2.6h-1.5v-19.1zm9.1 10.1c-.2-.7-.4-1.3-.8-1.9-.4-.5-.8-1-1.4-1.3s-1.2-.5-2-.5c-.9 0-1.6.2-2.2.5s-1.1.8-1.5 1.3-.6 1.2-.8 1.9-.2 1.4-.2 2.1.1 1.4.2 2.1c.2.7.4 1.3.8 1.9.4.5.9 1 1.5 1.3s1.3.5 2.2.5c.8 0 1.5-.2 2-.5.6-.3 1-.8 1.4-1.3s.6-1.2.8-1.9.2-1.4.2-2.1c.1-.7 0-1.4-.2-2.1M379.4 111.5c.3-.6.7-1.1 1.1-1.4.5-.4 1-.6 1.7-.8.6-.2 1.4-.3 2.2-.3.6 0 1.2.1 1.8.2s1.1.3 1.6.6.9.8 1.2 1.3c.3.6.4 1.3.4 2.2v7.3c0 .7.3 1 1 1 .2 0 .4 0 .5-.1v1.5c-.2 0-.4.1-.5.1h-.6c-.4 0-.8-.1-1-.2-.3-.1-.5-.3-.6-.5s-.2-.5-.3-.7c0-.3-.1-.6-.1-1h-.1l-.9 1.2c-.3.3-.6.6-1 .9-.4.2-.8.4-1.3.5s-1.1.2-1.7.2-1.2-.1-1.8-.2-1-.4-1.4-.7-.7-.7-1-1.2c-.2-.5-.4-1.1-.4-1.8 0-.9.2-1.7.6-2.2s1-.9 1.7-1.2 1.5-.5 2.3-.6c.9-.1 1.7-.2 2.6-.3.4 0 .7-.1.9-.1.3-.1.5-.1.7-.3.2-.1.3-.3.4-.5s.1-.5.1-.9c0-.6-.1-1-.3-1.4s-.4-.6-.8-.9c-.3-.2-.7-.4-1.1-.4-.4-.1-.9-.1-1.4-.1-1.1 0-1.9.2-2.6.7s-1 1.3-1.1 2.4h-1.8c.5-.9.7-1.7 1-2.3m8.4 4.2c-.1.2-.3.3-.6.4s-.6.1-.8.2c-.7.1-1.4.2-2.2.3-.7.1-1.4.2-2 .4s-1.1.5-1.5.8q-.6.6-.6 1.5c0 .4.1.8.2 1.1.2.3.4.6.7.8s.6.4 1 .5.7.2 1.1.2q.9 0 1.8-.3c.6-.2 1.1-.5 1.5-.8.4-.4.8-.8 1-1.3.3-.5.4-1.1.4-1.8zm-6.7-11.4h1.8v2.8h-1.8zm4.7 0h1.8v2.8h-1.8zM400.9 112c-.2-.4-.5-.7-.8-.9s-.7-.4-1.1-.5-.9-.2-1.3-.2-.7 0-1.1.1-.7.2-1 .4-.6.4-.8.7-.3.7-.3 1.1.1.7.3.9c.2.3.4.5.7.6.3.2.6.3.9.4l.9.3 2.2.5c.5.1.9.2 1.4.4s.9.4 1.2.7c.4.3.7.7.9 1.1s.3 1 .3 1.6c0 .7-.2 1.4-.5 1.9s-.8.9-1.3 1.3c-.5.3-1.1.6-1.7.7s-1.3.2-1.9.2c-1.6 0-3-.4-4-1.1-1-.8-1.6-2-1.7-3.7h1.7c.1 1.1.5 2 1.2 2.5.7.6 1.7.9 2.9.9.4 0 .8 0 1.2-.1s.8-.2 1.2-.4.7-.5.9-.8.4-.7.4-1.2c0-.4-.1-.7-.2-1-.2-.3-.4-.5-.7-.7s-.6-.3-1-.5c-.4-.1-.7-.2-1.1-.3l-2.1-.5c-.5-.1-1-.3-1.5-.5s-.9-.4-1.2-.7-.6-.6-.8-1q-.3-.6-.3-1.5c0-.7.2-1.3.5-1.8s.7-.9 1.2-1.2 1-.5 1.6-.7c.6-.1 1.2-.2 1.8-.2.7 0 1.3.1 1.9.3s1.1.4 1.6.8c.4.4.8.8 1.1 1.4.3.5.4 1.2.4 1.9h-1.7c0-.2-.1-.7-.3-1.2M411.2 109.4v1.4h-2.8v9.4c0 .5.1 1 .2 1.3s.5.5 1.1.5c.5 0 .9 0 1.4-.1v1.4h-1.4c-1.1 0-1.9-.2-2.3-.6s-.6-1.2-.6-2.4v-9.5h-2.4v-1.4h2.4v-4.2h1.7v4.2zM414.1 111.5c.3-.6.7-1.1 1.1-1.4.5-.4 1-.6 1.7-.8.6-.2 1.4-.3 2.2-.3.6 0 1.2.1 1.8.2s1.1.3 1.6.6.9.8 1.2 1.3c.3.6.4 1.3.4 2.2v7.3c0 .7.3 1 1 1 .2 0 .4 0 .5-.1v1.5c-.2 0-.4.1-.5.1h-.6c-.4 0-.8-.1-1-.2-.3-.1-.5-.3-.6-.5s-.2-.5-.3-.7c0-.3-.1-.6-.1-1h-.1l-.9 1.2c-.3.3-.6.6-1 .9-.4.2-.8.4-1.3.5s-1.1.2-1.7.2-1.2-.1-1.8-.2-1-.4-1.4-.7-.7-.7-1-1.2c-.2-.5-.4-1.1-.4-1.8 0-.9.2-1.7.6-2.2s1-.9 1.7-1.2 1.5-.5 2.3-.6c.9-.1 1.7-.2 2.6-.3.4 0 .7-.1.9-.1.3-.1.5-.1.7-.3.2-.1.3-.3.4-.5s.1-.5.1-.9c0-.6-.1-1-.3-1.4s-.4-.6-.8-.9c-.3-.2-.7-.4-1.1-.4-.4-.1-.9-.1-1.4-.1-1.1 0-1.9.2-2.6.7s-1 1.3-1.1 2.4h-1.3c0-.9.2-1.7.5-2.3m8.4 4.2c-.1.2-.3.3-.6.4s-.6.1-.8.2c-.7.1-1.4.2-2.2.3-.7.1-1.4.2-2 .4s-1.1.5-1.5.8q-.6.6-.6 1.5c0 .4.1.8.2 1.1.2.3.4.6.7.8s.6.4 1 .5.7.2 1.1.2q.9 0 1.8-.3c.6-.2 1.1-.5 1.5-.8.4-.4.8-.8 1-1.3.3-.5.4-1.1.4-1.8zM435.4 109.4l4.4 12.1h.1l4.3-12.1h1.7l-5.2 13.9h-1.8l-5.3-13.9zM447.8 111.5c.3-.6.7-1.1 1.1-1.4.5-.4 1-.6 1.7-.8.6-.2 1.4-.3 2.2-.3.6 0 1.2.1 1.8.2s1.1.3 1.6.6.9.8 1.2 1.3c.3.6.4 1.3.4 2.2v7.3c0 .7.3 1 1 1 .2 0 .4 0 .5-.1v1.5c-.2 0-.4.1-.5.1h-.6c-.4 0-.8-.1-1-.2-.3-.1-.5-.3-.6-.5s-.2-.5-.3-.7c0-.3-.1-.6-.1-1l-.9 1.2c-.3.3-.6.6-1 .9-.4.2-.8.4-1.3.5s-1.1.2-1.7.2-1.2-.1-1.8-.2-1-.4-1.4-.7-.7-.7-1-1.2c-.2-.5-.4-1.1-.4-1.8 0-.9.2-1.7.6-2.2s1-.9 1.7-1.2 1.5-.5 2.3-.6c.9-.1 1.7-.2 2.6-.3.4 0 .7-.1.9-.1.3-.1.5-.1.7-.3.2-.1.3-.3.4-.5s.1-.5.1-.9c0-.6-.1-1-.3-1.4s-.4-.6-.8-.9c-.3-.2-.7-.4-1.1-.4-.4-.1-.9-.1-1.4-.1-1.1 0-1.9.2-2.6.7s-1 1.3-1.1 2.4H447c.4-.9.5-1.7.8-2.3m8.5 4.2c-.1.2-.3.3-.6.4s-.6.1-.8.2c-.7.1-1.4.2-2.2.3-.7.1-1.4.2-2 .4s-1.1.5-1.5.8q-.6.6-.6 1.5c0 .4.1.8.2 1.1.2.3.4.6.7.8s.6.4 1 .5.7.2 1.1.2q.9 0 1.8-.3c.6-.2 1.1-.5 1.5-.8.4-.4.8-.8 1-1.3.3-.5.4-1.1.4-1.8zm-6.7-11.4h1.8v2.8h-1.8zm4.6 0h1.8v2.8h-1.8zM463 109.4v2.3h.1c.3-.8.9-1.5 1.7-2s1.7-.7 2.8-.7c.9 0 1.7.1 2.4.4.6.2 1.2.6 1.5 1 .4.4.7 1 .8 1.6.2.6.2 1.4.2 2.2v8.9h-1.7v-8.7c0-.6-.1-1.1-.2-1.6s-.3-.9-.6-1.3-.6-.7-1.1-.9c-.4-.2-1-.3-1.7-.3s-1.3.1-1.8.4c-.5.2-1 .6-1.3 1-.4.4-.6.9-.8 1.5s-.3 1.2-.3 1.9v8h-1.7v-13.7z"/></svg>